# xmcd
#
# Track frame offsets:
#	150
#	9820
#	22092
#	31072
#	45155
#	55720
#	67170
#	79065
#	88630
#	112787
#	155097
#	188345
#	238312
#
# Disc length: 3529 seconds
#
# Revision: 0
# Processed by: cddbd v1.4PL0 Copyright (c) Steve Scherf et al.
# Submitted via: audiograbber 1.82.02
#
DISCID=910dc70d
DTITLE=Canned Heat - Straight Ahead
DYEAR=1991
DGENRE=Blues
TTITLE0=Big Road Blues
TTITLE1=Got My Mojo Working
TTITLE2=Pretty Thing
TTITLE3=Louise
TTITLE4=Dimples
TTITLE5=Talk To Me Baby
TTITLE6=Straight Ahead
TTITLE7=Rollin' and Tumblin'
TTITLE8=I'd Rather Be A Devil
TTITLE9=It Hurts Me Too
TTITLE10=Bull Frog Blues
TTITLE11=Sweet Sixteen
TTITLE12=Dust My Broom
EXTD=ID3G:   Good Old Blues
EXTT0=
EXTT1=
EXTT2=
EXTT3=
EXTT4=
EXTT5=
EXTT6=
EXTT7=
EXTT8=
EXTT9=
EXTT10=
EXTT11=
EXTT12=
PLAYORDER=
